<svg width="24" height="24" viewBox="0 0 24 24" fill="none" xmlns="http://www.w3.org/2000/svg">
  <path d="M19.4665 4.57582L17.4978 2.54918C17.1562 2.19755 16.6929 2 16.2098 2L9.67857 2C8.67261 2 7.85714 2.83945 7.85714 3.875V5.75H4.82143C3.81547 5.75 3 6.58945 3 7.625V20.125C3 21.1605 3.81547 22 4.82143 22H13.3214C14.3274 22 15.1429 21.1605 15.1429 20.125V18.25H18.1786C19.1845 18.25 20 17.4105 20 16.375V5.90164C20 5.40436 19.8081 4.92745 19.4665 4.57582ZM13.0938 20.125H5.04911C4.98872 20.125 4.93081 20.1003 4.88811 20.0564C4.84542 20.0124 4.82143 19.9528 4.82143 19.8906V7.85938C4.82143 7.79721 4.84542 7.7376 4.88811 7.69365C4.93081 7.64969 4.98872 7.625 5.04911 7.625H7.85714V16.375C7.85714 17.4105 8.67261 18.25 9.67857 18.25H13.3214V19.8906C13.3214 19.9528 13.2974 20.0124 13.2547 20.0564C13.212 20.1003 13.1541 20.125 13.0938 20.125ZM17.9509 16.375H9.90625C9.84587 16.375 9.78795 16.3503 9.74526 16.3064C9.70256 16.2624 9.67857 16.2028 9.67857 16.1406V4.10938C9.67857 4.04721 9.70256 3.9876 9.74526 3.94365C9.78795 3.89969 9.84587 3.875 9.90625 3.875H13.9286V7.3125C13.9286 7.83027 14.3363 8.25 14.8393 8.25H18.1786V16.1406C18.1786 16.2028 18.1546 16.2624 18.1119 16.3064C18.0692 16.3503 18.0113 16.375 17.9509 16.375ZM18.1786 6.375H15.75V3.875H16.1155C16.1759 3.875 16.2338 3.89969 16.2765 3.94363L18.1119 5.83301C18.133 5.85477 18.1498 5.88061 18.1613 5.90905C18.1727 5.93749 18.1786 5.96797 18.1786 5.99875V6.375Z" fill="currentColor"/>
</svg>
