<svg width="24" height="24" viewBox="0 0 24 24" fill="none" xmlns="http://www.w3.org/2000/svg">
  <path d="M3.42196 16.0523C3.53932 15.6611 3.73491 15.2699 3.96962 14.957V14.9179H4.00874C4.08698 14.8005 4.20433 14.6831 4.28257 14.6049L16.1746 2.71284C17.1526 1.73488 18.7565 1.73488 19.7344 2.71284L21.2601 4.23847C21.3774 4.35583 21.4948 4.5123 21.573 4.62966C22.238 5.60762 22.1207 6.93765 21.2601 7.79826L9.36799 19.6903C9.32887 19.7294 9.25064 19.7686 9.21152 19.8468C9.1724 19.8859 9.09416 19.925 9.05504 19.9642V20.0033H9.01592C8.70298 20.238 8.31179 20.4336 7.9206 20.5509L4.86935 21.4507L3.18725 21.9592C2.8743 22.0374 2.52223 21.9592 2.28752 21.6854C2.01369 21.4507 1.93545 21.0986 2.05281 20.7856L2.52223 19.1035L3.42196 16.0523ZM16.9961 9.40213L14.5708 6.97677L7.2947 14.2528L7.76413 16.2088L9.72006 16.6782L16.9961 9.40213ZM5.8082 15.9741L5.33877 16.287C5.29966 16.3652 5.26054 16.4826 5.22142 16.6L4.94759 17.4997L4.32169 19.6512L6.47321 19.0253L7.37294 18.7515C7.4903 18.7124 7.60765 18.6732 7.68589 18.6341L7.99884 18.2038L6.78616 17.8909C6.4341 17.8126 6.16026 17.5388 6.08203 17.1867L5.8082 15.9741ZM14.3361 10.4974L10.5807 14.2528C10.346 14.4875 9.91565 14.4875 9.68094 14.2528C9.44623 14.0181 9.44623 13.6269 9.68094 13.3922L13.4363 9.63684C13.671 9.36301 14.1013 9.36301 14.3361 9.63684C14.5708 9.87155 14.5708 10.2627 14.3361 10.4974Z" fill="currentColor"/>
</svg>
